{
    "accessors" : [
        {
            "bufferView" : 0,
            "componentType" : 5123,
            "count" : 612,
            "max" : [
                459
            ],
            "min" : [
                0
            ],
            "type" : "SCALAR"
        },
        {
            "bufferView" : 1,
            "componentType" : 5126,
            "count" : 460,
            "max" : [
                0.6565630435943604,
                0.3455413579940796,
                0.16533219814300537
            ],
            "min" : [
                -0.20587921142578125,
                -0.06852637231349945,
                -0.03383433818817139
            ],
            "type" : "VEC3"
        },
        {
            "bufferView" : 2,
            "componentType" : 5126,
            "count" : 460,
            "max" : [
                0.9421674013137817,
                1.0,
                1.0
            ],
            "min" : [
                -0.940336287021637,
                -1.0,
                -1.0
            ],
            "type" : "VEC3"
        },
        {
            "bufferView" : 3,
            "componentType" : 5126,
            "count" : 460,
            "max" : [
                1.0,
                0.06849692761898041,
                -0.0,
                1.0
            ],
            "min" : [
                -0.9998320937156677,
                -0.08527130633592606,
                -1.0,
                -1.0
            ],
            "type" : "VEC4"
        },
        {
            "bufferView" : 4,
            "componentType" : 5126,
            "count" : 460,
            "max" : [
                0.9110578298568726,
                0.33730828762054443
            ],
            "min" : [
                0.7410050630569458,
                0.07712775468826294
            ],
            "type" : "VEC2"
        }
    ],
    "asset" : {
        "generator" : "Khronos Blender glTF 2.0 exporter",
        "version" : "2.0"
    },
    "bufferViews" : [
        {
            "buffer" : 0,
            "byteLength" : 1224,
            "byteOffset" : 0,
            "target" : 34963
        },
        {
            "buffer" : 0,
            "byteLength" : 5520,
            "byteOffset" : 1224,
            "target" : 34962
        },
        {
            "buffer" : 0,
            "byteLength" : 5520,
            "byteOffset" : 6744,
            "target" : 34962
        },
        {
            "buffer" : 0,
            "byteLength" : 7360,
            "byteOffset" : 12264,
            "target" : 34962
        },
        {
            "buffer" : 0,
            "byteLength" : 3680,
            "byteOffset" : 19624,
            "target" : 34962
        }
    ],
    "buffers" : [
        {
            "byteLength" : 23304,
            "uri" : "untitled.bin"
        }
    ],
    "images" : [
        {
            "name" : "Symbols",
            "uri" : "Symbols.png"
        }
    ],
    "materials" : [
        {
            "name" : "Material.001",
            "pbrMetallicRoughness" : {
                "baseColorTexture" : {
                    "index" : 0
                },
                "metallicFactor" : 0.0
            }
        }
    ],
    "meshes" : [
        {
            "name" : "Cube.004",
            "primitives" : [
                {
                    "attributes" : {
                        "NORMAL" : 2,
                        "POSITION" : 1,
                        "TANGENT" : 3,
                        "TEXCOORD_0" : 4
                    },
                    "indices" : 0,
                    "material" : 0
                }
            ]
        }
    ],
    "nodes" : [
        {
            "name" : "Camera",
            "rotation" : [
                0.483536034822464,
                0.33687159419059753,
                -0.20870360732078552,
                0.7804827094078064
            ],
            "translation" : [
                7.481131553649902,
                5.34366512298584,
                6.5076398849487305
            ]
        },
        {
            "mesh" : 0,
            "name" : "Cube.004",
            "scale" : [
                0.8497772216796875,
                2.4280946254730225,
                1.215806007385254
            ]
        },
        {
            "name" : "Lamp",
            "rotation" : [
                0.16907575726509094,
                0.7558802962303162,
                -0.27217137813568115,
                0.570947527885437
            ],
            "scale" : [
                1.0,
                1.0,
                0.9999999403953552
            ],
            "translation" : [
                4.076245307922363,
                5.903861999511719,
                -1.0054539442062378
            ]
        }
    ],
    "samplers" : [
        {}
    ],
    "scene" : 0,
    "scenes" : [
        {
            "name" : "Scene",
            "nodes" : [
                1,
                2,
                0
            ]
        }
    ],
    "textures" : [
        {
            "sampler" : 0,
            "source" : 0
        }
    ]
}
